<svg width="146" height="104" viewBox="0 0 146 104" fill="none" xmlns="http://www.w3.org/2000/svg">
<path d="M72.7173 94.5031V79.5082V60.0147C84.0506 59.015 111.317 60.3147 103.717 69.5117L103.467 69.814C94.1651 81.0699 91.2702 84.5727 97.2173 92.0041C103.217 99.5016 97.2173 106.499 91.2173 100.501C86.4173 95.7028 76.7173 94.5031 72.7173 94.5031Z" fill="#77777A"/>
<path d="M73.0337 94.5031V79.5082V60.0147C61.7004 59.015 34.4337 60.3147 42.0337 69.5117L42.2835 69.814C51.5859 81.0699 54.4808 84.5727 48.5337 92.0041C42.5337 99.5016 48.5337 106.499 54.5337 100.501C59.3337 95.7028 69.0337 94.5031 73.0337 94.5031Z" fill="#77777A"/>
<path d="M63.7168 98.0913V94.0929V93.0933H81.7168V98.0913H63.7168Z" fill="#77777A"/>
<path d="M98.1329 96.6589C96.792 94.3373 93.139 92.6681 91.9213 93.3708C90.7035 94.0736 90.8034 96.5254 92.1443 98.8471C93.4852 101.169 95.5594 102.481 96.7772 101.778C97.9949 101.075 99.4738 98.9806 98.1329 96.6589Z" fill="white"/>
<path d="M47.5956 96.6589C48.9366 94.3373 52.5895 92.6681 53.8072 93.3708C55.025 94.0736 54.9251 96.5254 53.5842 98.8471C52.2433 101.169 50.1691 102.481 48.9513 101.778C47.7336 101.075 46.2547 98.9806 47.5956 96.6589Z" fill="white"/>
<path d="M81.1889 95.6204C80.8141 94.5657 79.4416 93.6063 78.8889 93.8041C78.3363 94.002 78.1922 95.0174 78.567 96.0722C78.9418 97.1269 79.6936 97.8215 80.2462 97.6237C80.7988 97.4258 81.5637 96.6751 81.1889 95.6204Z" fill="white"/>
<path d="M64.1549 95.6204C64.5297 94.5657 65.9022 93.6063 66.4548 93.8041C67.0074 94.002 67.1516 95.0174 66.7768 96.0722C66.402 97.1269 65.6502 97.8215 65.0975 97.6237C64.5449 97.4258 63.7801 96.6751 64.1549 95.6204Z" fill="white"/>
<path d="M77.9491 95.3231C77.5743 94.2683 76.2018 93.3089 75.6492 93.5068C75.0966 93.7046 74.9524 94.7201 75.3272 95.7748C75.702 96.8295 76.4538 97.5242 77.0065 97.3263C77.5591 97.1284 78.3239 96.3778 77.9491 95.3231Z" fill="white"/>
<path d="M67.3946 95.3231C67.7694 94.2683 69.1419 93.3089 69.6946 93.5068C70.2472 93.7046 70.3913 94.7201 70.0165 95.7748C69.6417 96.8295 68.8899 97.5242 68.3373 97.3263C67.7847 97.1284 67.0198 96.3778 67.3946 95.3231Z" fill="white"/>
<path d="M74.6446 96.2245C74.6446 95.2229 73.7743 93.5041 72.7007 93.5041C71.6271 93.5041 70.7568 95.2229 70.7568 96.2245C70.7568 97.2261 71.6271 98.0381 72.7007 98.0381C73.7743 98.0381 74.6446 97.2261 74.6446 96.2245Z" fill="white"/>
<path d="M85.7168 96.2054C85.7168 98.8427 77.0501 103.091 72.7168 103.091V96.2053C77.0501 95.9855 85.7168 93.5681 85.7168 96.2054Z" fill="#C4C4C4"/>
<path d="M59.7168 96.2055C59.7168 98.8427 68.3835 103.091 72.7168 103.091V96.2055C68.3835 95.9858 59.7168 93.5682 59.7168 96.2055Z" fill="#C4C4C4"/>
<path d="M75.7178 86.3061C75.7178 87.852 74.3746 90.5049 72.7178 90.5049C71.0609 90.5049 69.7178 87.852 69.7178 86.3061C69.7178 84.7601 71.0609 83.5068 72.7178 83.5068C74.3746 83.5068 75.7178 84.7601 75.7178 86.3061Z" fill="white"/>
<path d="M85.8177 84.1496C85.2388 85.7768 83.1199 87.2573 82.267 86.9522C81.414 86.6472 81.1918 85.0808 81.7707 83.4536C82.3496 81.8264 83.5103 80.7546 84.3632 81.0597C85.2162 81.3647 86.3965 82.5225 85.8177 84.1496Z" fill="white"/>
<path d="M80.8175 86.1461C80.2373 87.7728 78.1165 89.2538 77.2633 88.9494C76.4101 88.645 76.1888 87.0795 76.7689 85.4528C77.349 83.8261 78.511 82.7541 79.3642 83.0585C80.2173 83.3629 81.3976 84.5193 80.8175 86.1461Z" fill="white"/>
<path d="M59.529 84.1496C60.1079 85.7768 62.2268 87.2573 63.0797 86.9522C63.9327 86.6472 64.1549 85.0808 63.576 83.4536C62.9971 81.8264 61.8364 80.7546 60.9834 81.0597C60.1305 81.3647 58.9501 82.5225 59.529 84.1496Z" fill="white"/>
<path d="M64.5302 86.1461C65.1103 87.7728 67.2312 89.2538 68.0843 88.9494C68.9375 88.645 69.1589 87.0795 68.5787 85.4528C67.9986 83.8261 66.8367 82.7541 65.9835 83.0585C65.1303 83.3629 63.9501 84.5193 64.5302 86.1461Z" fill="white"/>
<path d="M51.865 75.1628C52.0257 76.8845 49.6943 80.2939 48.5085 81.7834L34.6785 74.9633C35.8339 74.1729 38.8162 72.2346 41.5017 70.8046C44.8585 69.0171 47.9423 73.5217 49.4019 73.7951C50.8615 74.0686 51.6642 73.0108 51.865 75.1628Z" fill="#77777A"/>
<path d="M40.3139 73.6254C45.8894 72.2536 49.2054 76.701 50.1665 79.0961C48.1421 89.8933 38.4968 90.8605 35.5716 90.8604C31.7165 90.8604 24.7165 87.0954 28.2165 80.098C31.2163 75.5998 34.7384 74.9972 40.3139 73.6254Z" fill="#77777A"/>
<path d="M44.942 67.5964C43.2788 67.1214 39.497 68.7839 37.814 69.6746L41.972 84.5191C42.962 83.5295 45.4173 80.9564 47.3181 78.5813C49.6941 75.6124 45.8331 71.7529 45.8331 70.2684C45.8331 68.784 47.0211 68.1902 44.942 67.5964Z" fill="#C4C4C4"/>
<path d="M34.9316 86.2541C34.7643 86.8931 34.8925 88.0984 35.4046 88.2325C35.9167 88.3666 36.6188 87.3787 36.7861 86.7396C36.9533 86.1006 36.6737 85.4738 36.1616 85.3397C35.6495 85.2057 35.0988 85.615 34.9316 86.2541Z" fill="white"/>
<path d="M34.7408 86.4836C34.743 87.1442 34.3177 88.2792 33.7883 88.2809C33.259 88.2827 32.826 87.1506 32.8238 86.49C32.8216 85.8294 33.249 85.2925 33.7783 85.2907C34.3077 85.289 34.7386 85.823 34.7408 86.4836Z" fill="white"/>
<path d="M32.6351 85.2533C32.8024 85.8924 32.6744 87.0976 32.1622 87.2316C31.6501 87.3656 30.9478 86.3776 30.7805 85.7386C30.6132 85.0996 30.8927 84.4729 31.4048 84.3389C31.917 84.2049 32.4678 84.6143 32.6351 85.2533Z" fill="white"/>
<path d="M45.6261 79.4717C48.0021 74.2465 44.2401 70.1692 42.062 68.7837C31.0726 68.7837 28.9939 78.2841 27.8059 80.9562C26.8555 83.0938 29.7168 86.8939 37.31 86.8939C42.567 86.8939 43.25 84.697 45.6261 79.4717Z" fill="#C4C4C4"/>
<path d="M38.2156 86.4486C38.7159 85.5823 40.1374 84.4207 40.832 84.8216C41.5265 85.2224 41.2309 87.0339 40.7306 87.9002C40.2303 88.7665 39.2617 89.1438 38.5672 88.743C37.8727 88.3421 37.7152 87.3149 38.2156 86.4486Z" fill="white"/>
<path d="M30.0884 84.8144C30.0887 83.8143 29.5585 82.098 28.9037 82.0978C28.249 82.0976 27.7177 83.8136 27.7174 84.8137C27.7171 85.8138 28.2476 86.6247 28.9023 86.6249C29.557 86.6251 30.088 85.8145 30.0884 84.8144Z" fill="white"/>
<path d="M93.3791 75.1628C93.2184 76.8845 95.5498 80.2939 96.7356 81.7834L110.566 74.9633C109.41 74.1729 106.428 72.2346 103.742 70.8046C100.386 69.0171 97.3019 73.5217 95.8423 73.7951C94.3827 74.0686 93.58 73.0108 93.3791 75.1628Z" fill="#77777A"/>
<path d="M105.365 73.6258C99.7894 72.254 96.4734 76.7014 95.5123 79.0965C97.5366 89.8937 107.182 90.8609 110.107 90.8608C120.716 90.8608 116.716 80.0987 116.716 80.0987C114.216 75.1008 110.94 74.9976 105.365 73.6258Z" fill="#77777A"/>
<path d="M99.8651 67.5964C101.528 67.1214 105.31 68.7839 106.993 69.6746L102.835 84.5191C101.845 83.5295 99.3899 80.9564 97.4891 78.5813C95.113 75.6124 98.9741 71.7529 98.9741 70.2684C98.9741 68.784 97.7861 68.1902 99.8651 67.5964Z" fill="#C4C4C4"/>
<path d="M109.874 86.2546C110.041 86.8936 109.913 88.0989 109.401 88.233C108.888 88.3671 108.186 87.3792 108.019 86.7401C107.852 86.1011 108.131 85.4743 108.644 85.3402C109.156 85.2062 109.706 85.6155 109.874 86.2546Z" fill="white"/>
<path d="M110.064 86.4841C110.062 87.1447 110.487 88.2796 111.017 88.2814C111.546 88.2832 111.979 87.1511 111.981 86.4905C111.984 85.8299 111.556 85.293 111.027 85.2912C110.498 85.2894 110.067 85.8235 110.064 86.4841Z" fill="white"/>
<path d="M112.17 85.2538C112.003 85.8928 112.131 87.098 112.643 87.2321C113.155 87.3661 113.857 86.3781 114.025 85.7391C114.192 85.1001 113.912 84.4734 113.4 84.3394C112.888 84.2054 112.337 84.6148 112.17 85.2538Z" fill="white"/>
<path d="M99.1827 79.4717C96.8066 74.2465 100.569 70.1692 102.747 68.7837C113.736 68.7837 115.815 78.2841 117.003 80.9562C117.953 83.0938 115.717 86.8939 107.499 86.8939C102.242 86.8939 101.559 84.697 99.1827 79.4717Z" fill="#C4C4C4"/>
<path d="M106.59 86.4486C106.09 85.5823 104.668 84.4207 103.974 84.8216C103.279 85.2224 103.575 87.0339 104.075 87.9002C104.575 88.7665 105.544 89.1438 106.238 88.743C106.933 88.3421 107.09 87.3149 106.59 86.4486Z" fill="white"/>
<path d="M114.717 84.8144C114.717 83.8143 115.247 82.098 115.902 82.0978C116.557 82.0976 117.088 83.8136 117.088 84.8137C117.089 85.8138 116.558 86.6247 115.903 86.6249C115.249 86.6251 114.718 85.8145 114.717 84.8144Z" fill="white"/>
<mask id="mask0" mask-type="alpha" maskUnits="userSpaceOnUse" x="27" y="67" width="91" height="24">
<path d="M51.865 75.1623C52.0257 76.884 49.6943 80.2934 48.5085 81.7829L34.6785 74.9628C35.8339 74.1724 38.8162 72.2341 41.5017 70.8041C44.8585 69.0166 47.9423 73.5212 49.4019 73.7946C50.8615 74.0681 51.6642 73.0103 51.865 75.1623Z" fill="#403366"/>
<path d="M40.3143 73.6254C45.8898 72.2536 49.2058 76.7009 50.1669 79.0961C48.1426 89.8933 38.4182 90.1854 35.5721 90.8604C33.2952 91.4004 31.8983 84.1309 31.4845 80.4286C32.4528 75.2636 34.7389 74.9972 40.3143 73.6254Z" fill="#403366"/>
<path d="M44.9425 67.5964C43.2793 67.1214 39.4975 68.7839 37.8145 69.6746L41.9725 84.5191C42.9625 83.5295 45.4177 80.9564 47.3186 78.5813C49.6946 75.6124 45.8335 71.7529 45.8335 70.2684C45.8335 68.784 47.0216 68.1902 44.9425 67.5964Z" fill="#6C5C99"/>
<path d="M45.6261 79.4717C48.0021 74.2465 44.2401 70.1692 42.062 68.7837C31.0726 68.7837 28.9939 78.2841 27.8059 80.9561C26.8554 83.0938 33.7459 85.8053 37.31 86.8939C42.567 86.8939 43.25 84.697 45.6261 79.4717Z" fill="#6C5C99"/>
<path d="M93.3791 75.1623C93.2184 76.884 95.5498 80.2934 96.7356 81.7829L110.566 74.9628C109.41 74.1724 106.428 72.2341 103.742 70.8041C100.386 69.0166 97.3019 73.5212 95.8423 73.7946C94.3827 74.0681 93.58 73.0103 93.3791 75.1623Z" fill="#403366"/>
<path d="M105.366 73.6254C99.7904 72.2536 96.4743 76.7009 95.5132 79.0961C97.5376 89.8933 107.262 90.1854 110.108 90.8604C112.385 91.4004 113.782 84.1309 114.196 80.4286C113.227 75.2636 110.941 74.9972 105.366 73.6254Z" fill="#403366"/>
<path d="M99.8646 67.5964C101.528 67.1214 105.31 68.7839 106.993 69.6746L102.835 84.5191C101.845 83.5295 99.3894 80.9564 97.4886 78.5813C95.1125 75.6124 98.9736 71.7529 98.9736 70.2684C98.9736 68.784 97.7856 68.1902 99.8646 67.5964Z" fill="#6C5C99"/>
<path d="M99.182 79.4717C96.806 74.2465 100.568 70.1692 102.746 68.7837C113.735 68.7837 115.814 78.2841 117.002 80.9561C117.953 83.0938 111.062 85.8053 107.498 86.8939C102.241 86.8939 101.558 84.697 99.182 79.4717Z" fill="#6C5C99"/>
</mask>
<g mask="url(#mask0)">
<path d="M83.3756 76.5696C84.0698 79.1591 82.6677 82.9214 81.3095 83.2851C79.9513 83.6489 78.2875 81.8446 77.5933 79.2551C76.8992 76.6656 77.4375 74.2715 78.7957 73.9078C80.1539 73.544 82.6814 73.9801 83.3756 76.5696Z" fill="#77777A"/>
<path d="M76.6493 75.133C77.2743 70.6169 74.4099 68.9227 72.8996 68.6402C73.9367 64.7711 76.7574 57.5255 79.7429 59.496C83.4748 61.9591 85.2915 66.1048 85.0103 72.6158C84.729 79.1267 75.8681 80.7782 76.6493 75.133Z" fill="#77777A"/>
<path d="M44.8227 78.9108C44.1286 81.5003 45.5308 85.2627 46.889 85.6265C48.2471 85.9902 49.9109 84.1859 50.605 81.5964C51.2991 79.0069 50.7608 76.6128 49.4026 76.249C48.0444 75.8852 45.5169 76.3213 44.8227 78.9108Z" fill="#77777A"/>
<path d="M52.0613 77.7696C51.4364 73.2536 54.3009 71.5594 55.8112 71.2768C54.7741 67.4078 51.9535 60.1624 48.9679 62.1329C45.2359 64.596 43.4191 68.7417 43.7003 75.2525C43.9814 81.7633 52.8425 83.4147 52.0613 77.7696Z" fill="#77777A"/>
</g>
<path d="M94.3246 80.1152C93.6305 82.7047 90.5342 85.2622 89.176 84.8984C87.8179 84.5346 87.2795 82.1405 87.9736 79.551C88.6678 76.9615 90.3315 75.1572 91.6897 75.521C93.0479 75.8848 95.0187 77.5257 94.3246 80.1152Z" fill="white"/>
<path d="M89.217 75.5086C92.017 71.91 90.3836 69.0111 89.217 68.0115C92.0503 65.1793 98.117 60.3145 99.717 63.5133C101.717 67.5117 101.217 72.01 97.717 77.5079C94.217 83.0058 85.717 80.0069 89.217 75.5086Z" fill="#C4C4C4"/>
<path d="M50.6896 80.1152C51.3837 82.7047 54.4799 85.2622 55.8381 84.8984C57.1963 84.5346 57.7346 82.1405 57.0405 79.551C56.3464 76.9615 54.6827 75.1572 53.3245 75.521C51.9663 75.8848 49.9955 77.5257 50.6896 80.1152Z" fill="white"/>
<path d="M56.3856 75.5086C53.5856 71.91 55.2189 69.0111 56.3856 68.0115C53.5523 65.1793 47.4856 60.3145 45.8855 63.5133C43.8854 67.5117 44.3856 72.01 47.8856 77.5079C51.3856 83.0058 59.8856 80.0069 56.3856 75.5086Z" fill="#C4C4C4"/>
<mask id="mask1" mask-type="alpha" maskUnits="userSpaceOnUse" x="27" y="59" width="91" height="45">
<path d="M72.7168 94.5031V79.5082V60.0147C84.0501 59.015 111.317 60.3147 103.717 69.5117L103.467 69.814C94.1646 81.0699 91.2697 84.5727 97.2168 92.0041C103.217 99.5016 97.2168 106.499 91.2168 100.501C86.4168 95.7028 76.7168 94.5031 72.7168 94.5031Z" fill="#403366"/>
<path d="M73.0342 94.5031V79.5082V60.0147C61.7008 59.015 34.4342 60.3147 42.0342 69.5117L42.284 69.814C51.5864 81.0699 54.4813 84.5727 48.5342 92.0041C42.5342 99.5016 48.5342 106.499 54.5342 100.501C59.3342 95.7028 69.0342 94.5031 73.0342 94.5031Z" fill="#403366"/>
<path d="M63.7168 98.0913V94.0929V93.0933H81.7168V98.0913H63.7168Z" fill="#403366"/>
<path d="M98.1329 96.6589C96.792 94.3373 93.139 92.6681 91.9213 93.3708C90.7035 94.0736 90.8034 96.5254 92.1443 98.8471C93.4852 101.169 95.5594 102.481 96.7772 101.778C97.9949 101.075 99.4738 98.9806 98.1329 96.6589Z" fill="#F4F2FF"/>
<path d="M47.5956 96.6589C48.9366 94.3373 52.5895 92.6681 53.8072 93.3708C55.025 94.0736 54.9251 96.5254 53.5842 98.8471C52.2433 101.169 50.1691 102.481 48.9513 101.778C47.7336 101.075 46.2547 98.9806 47.5956 96.6589Z" fill="#F4F2FF"/>
<path d="M81.1889 95.6204C80.8141 94.5657 79.4416 93.6063 78.8889 93.8041C78.3363 94.002 78.1922 95.0174 78.567 96.0722C78.9418 97.1269 79.6936 97.8215 80.2462 97.6237C80.7988 97.4258 81.5637 96.6751 81.1889 95.6204Z" fill="#F4F2FF"/>
<path d="M64.1549 95.6204C64.5297 94.5657 65.9022 93.6063 66.4548 93.8041C67.0074 94.002 67.1516 95.0174 66.7768 96.0722C66.402 97.1269 65.6502 97.8215 65.0975 97.6237C64.5449 97.4258 63.7801 96.6751 64.1549 95.6204Z" fill="#F4F2FF"/>
<path d="M77.9492 95.3226C77.5746 94.2678 76.2023 93.3085 75.6497 93.5064C75.0971 93.7044 74.9529 94.7199 75.3275 95.7747C75.7022 96.8295 76.4538 97.5241 77.0064 97.3261C77.559 97.1282 78.3239 96.3774 77.9492 95.3226Z" fill="#F4F2FF"/>
<path d="M67.394 95.3226C67.7687 94.2678 69.1409 93.3085 69.6935 93.5064C70.2461 93.7044 70.3904 94.7199 70.0157 95.7747C69.6411 96.8295 68.8894 97.5241 68.3368 97.3261C67.7843 97.1282 67.0194 96.3774 67.394 95.3226Z" fill="#F4F2FF"/>
<path d="M74.6446 96.2245C74.6446 95.2229 73.7743 93.5041 72.7007 93.5041C71.6271 93.5041 70.7568 95.2229 70.7568 96.2245C70.7568 97.2261 71.6271 98.0381 72.7007 98.0381C73.7743 98.0381 74.6446 97.2261 74.6446 96.2245Z" fill="#F4F2FF"/>
<path d="M85.7168 96.2054C85.7168 98.8427 77.0501 103.091 72.7168 103.091V96.2053C77.0501 95.9855 85.7168 93.5681 85.7168 96.2054Z" fill="#6C5C99"/>
<path d="M59.7168 96.2055C59.7168 98.8427 68.3835 103.091 72.7168 103.091V96.2055C68.3835 95.9858 59.7168 93.5682 59.7168 96.2055Z" fill="#6C5C99"/>
<path d="M75.7168 84.308C75.7168 85.854 74.3737 88.5068 72.7168 88.5068C71.0599 88.5068 69.7168 85.854 69.7168 84.308C69.7168 82.762 71.0599 81.5088 72.7168 81.5088C74.3737 81.5088 75.7168 82.762 75.7168 84.308Z" fill="#F4F2FF"/>
<path d="M85.8167 82.1509C85.2379 83.7781 83.1192 85.2585 82.2663 84.9534C81.4133 84.6483 81.1911 83.0818 81.7699 81.4546C82.3487 79.8274 83.5093 78.7556 84.3622 79.0607C85.2152 79.3658 86.3955 80.5236 85.8167 82.1509Z" fill="#F4F2FF"/>
<path d="M80.8164 84.1468C80.2362 85.7735 78.1153 87.2546 77.2621 86.9502C76.4089 86.6459 76.1876 85.0804 76.7678 83.4537C77.348 81.827 78.51 80.755 79.3632 81.0594C80.2164 81.3637 81.3966 82.5201 80.8164 84.1468Z" fill="#F4F2FF"/>
<path d="M59.528 82.1509C60.1068 83.7781 62.2255 85.2585 63.0785 84.9534C63.9314 84.6483 64.1536 83.0818 63.5748 81.4546C62.9961 79.8274 61.8354 78.7556 60.9825 79.0607C60.1296 79.3658 58.9492 80.5236 59.528 82.1509Z" fill="#F4F2FF"/>
<path d="M64.5293 84.1468C65.1095 85.7735 67.2304 87.2546 68.0836 86.9502C68.9368 86.6459 69.1581 85.0804 68.5779 83.4537C67.9977 81.827 66.8357 80.755 65.9825 81.0594C65.1293 81.3637 63.9491 82.5201 64.5293 84.1468Z" fill="#F4F2FF"/>
<path d="M51.865 75.1623C52.0257 76.884 49.6943 80.2934 48.5085 81.7829L34.6785 74.9628C35.8339 74.1724 38.8162 72.2341 41.5017 70.8041C44.8585 69.0166 47.9423 73.5212 49.4019 73.7946C50.8615 74.0681 51.6642 73.0103 51.865 75.1623Z" fill="#403366"/>
<path d="M40.3143 73.6254C45.8898 72.2536 49.2058 76.7009 50.1669 79.0961C48.1426 89.8933 38.4182 90.1854 35.5721 90.8604C33.2952 91.4004 31.8983 84.1309 31.4845 80.4286C32.4528 75.2636 34.7389 74.9972 40.3143 73.6254Z" fill="#403366"/>
<path d="M44.943 67.5964C43.2798 67.1214 39.498 68.7839 37.8149 69.6746L41.973 84.5191C42.963 83.5295 45.4182 80.9564 47.3191 78.5813C49.6951 75.6124 45.834 71.7529 45.834 70.2684C45.834 68.784 47.022 68.1902 44.943 67.5964Z" fill="#6C5C99"/>
<path d="M45.6261 79.4717C48.0021 74.2465 44.2401 70.1692 42.062 68.7837C31.0726 68.7837 28.9939 78.2841 27.8059 80.9561C26.8554 83.0938 33.7459 85.8053 37.31 86.8939C42.567 86.8939 43.25 84.697 45.6261 79.4717Z" fill="#6C5C99"/>
<path d="M93.3791 75.1623C93.2184 76.884 95.5498 80.2934 96.7356 81.7829L110.566 74.9628C109.41 74.1724 106.428 72.2341 103.742 70.8041C100.386 69.0166 97.3019 73.5212 95.8423 73.7946C94.3827 74.0681 93.58 73.0103 93.3791 75.1623Z" fill="#403366"/>
<path d="M105.366 73.6254C99.7904 72.2536 96.4743 76.7009 95.5132 79.0961C97.5376 89.8933 107.262 90.1854 110.108 90.8604C112.385 91.4004 113.782 84.1309 114.196 80.4286C113.227 75.2636 110.941 74.9972 105.366 73.6254Z" fill="#403366"/>
<path d="M99.8651 67.5964C101.528 67.1214 105.31 68.7839 106.993 69.6746L102.835 84.5191C101.845 83.5295 99.3899 80.9564 97.4891 78.5813C95.113 75.6124 98.9741 71.7529 98.9741 70.2684C98.9741 68.784 97.7861 68.1902 99.8651 67.5964Z" fill="#6C5C99"/>
<path d="M99.182 79.4717C96.806 74.2465 100.568 70.1692 102.746 68.7837C113.735 68.7837 115.814 78.2841 117.002 80.9562C117.953 83.0938 111.062 85.8053 107.498 86.8939C102.241 86.8939 101.558 84.697 99.182 79.4717Z" fill="#6C5C99"/>
<path d="M94.3246 80.1152C93.6305 82.7047 90.5342 85.2622 89.176 84.8984C87.8179 84.5346 87.2795 82.1405 87.9736 79.551C88.6678 76.9615 90.3315 75.1572 91.6897 75.521C93.0479 75.8848 95.0187 77.5257 94.3246 80.1152Z" fill="#F4F2FF"/>
<path d="M89.217 75.5086C92.017 71.91 90.3836 69.0111 89.217 68.0115C92.0503 65.1793 98.117 60.3145 99.717 63.5133C101.717 67.5117 101.217 72.01 97.717 77.5079C94.217 83.0058 85.717 80.0069 89.217 75.5086Z" fill="#EF6D6B"/>
<path d="M50.6896 80.1152C51.3837 82.7047 54.4799 85.2622 55.8381 84.8984C57.1963 84.5346 57.7346 82.1405 57.0405 79.551C56.3464 76.9615 54.6827 75.1572 53.3245 75.521C51.9663 75.8848 49.9955 77.5257 50.6896 80.1152Z" fill="#F4F2FF"/>
<path d="M56.3866 75.5086C53.5866 71.91 55.2199 69.0111 56.3866 68.0115C53.5532 65.1793 47.4865 60.3145 45.8865 63.5133C43.8864 67.5117 44.3866 72.01 47.8866 77.5079C51.3866 83.0058 59.8866 80.0069 56.3866 75.5086Z" fill="#EF6D6B"/>
</mask>
<g mask="url(#mask1)">
<path d="M84.2963 82.7314C77.7704 88.8028 67.6632 88.8028 61.1373 82.7314L46.3442 68.9687C35.0378 58.4499 42.4809 39.5223 57.9237 39.5223L87.5099 39.5223C102.953 39.5223 110.396 58.4499 99.0894 68.9688L84.2963 82.7314Z" fill="#77777A"/>
<path d="M89.7168 77.5987L86.2178 79.5085H72.7178V28.5254L74.4963 28.6439C78.2764 28.8959 81.9746 29.8616 85.3952 31.4899L87.1365 32.3188C89.4369 33.4138 92.0731 33.5752 94.5944 33.21C97.2262 32.8288 99.567 32.4721 103.218 29.0253C106.218 26.1929 107.417 21.3351 107.718 16.5294C108.218 8.53195 102.669 -6.85223 122.718 16.5294C128.718 23.527 120.218 35.523 129.718 37.0225C139.218 38.522 144.718 15.5297 145.218 37.0225C145.52 49.9956 140.337 56.0069 135.77 58.3197C134.26 59.0845 133.213 57.3392 133.418 55.6589C133.746 52.9776 131.622 50.8592 122.718 53.0172C106.218 57.0159 109.718 74.5101 103.218 73.5104C98.0178 72.7107 91.3835 75.9326 89.7168 77.5987Z" fill="#77777A"/>
<path d="M55.2305 77.0989L59.7305 79.5085H73.2305V28.5254L71.4519 28.6439C67.6718 28.8959 63.9737 29.8616 60.553 31.4899L58.8117 32.3188C56.5114 33.4138 53.8752 33.5752 51.3538 33.21C48.722 32.8288 46.3812 32.4721 42.7305 29.0253C39.7305 26.1929 38.5309 21.3351 38.2305 16.5294C37.7305 8.53195 43.2788 -6.85223 23.2305 16.5294C17.2305 23.527 25.7305 35.523 16.2305 37.0225C6.73047 38.522 1.23047 15.5297 0.730469 37.0225C0.428673 49.9956 5.61076 56.0069 10.1778 58.3197C11.688 59.0845 12.7355 57.3392 12.5299 55.6589C12.2018 52.9776 14.3258 50.8592 23.2305 53.0172C39.7305 57.0159 36.2305 74.5101 42.7305 73.5104C47.9305 72.7107 53.5638 75.4328 55.2305 77.0989Z" fill="#77777A"/>
</g>
<path d="M84.2963 80.7314C77.7704 86.8028 67.6632 86.8028 61.1373 80.7314L46.3442 66.9687C35.0378 56.4499 42.4809 37.5223 57.9237 37.5223L87.5099 37.5223C102.953 37.5223 110.396 56.4499 99.0894 66.9688L84.2963 80.7314Z" fill="white"/>
<path d="M91.7168 73.512L86.2168 75.5114H72.7168V24.5283L74.4954 24.6469C78.2754 24.8988 81.9736 25.8645 85.3943 27.4928L87.1356 28.3217C89.4359 29.4167 92.0721 29.5781 94.5935 29.2129C97.2253 28.8318 99.566 28.475 103.217 25.0282C106.217 22.1958 107.416 17.338 107.717 12.5324C108.217 4.53488 102.668 -10.8493 122.717 12.5324C128.717 19.5299 120.217 31.526 129.717 33.0255C139.217 34.525 144.717 11.5326 145.217 33.0255C145.519 45.9985 140.337 52.0098 135.769 54.3227C134.259 55.0875 133.212 53.3421 133.417 51.6618C133.745 48.9805 131.621 46.8622 122.717 49.0202C106.217 53.0189 109.717 70.513 103.217 69.5134C98.0168 68.7136 93.3835 71.8459 91.7168 73.512Z" fill="white"/>
<path d="M54.2295 73.512L59.7295 75.5114H73.2295V24.5283L71.4509 24.6469C67.6709 24.8988 63.9727 25.8645 60.552 27.4928L58.8107 28.3217C56.5104 29.4167 53.8742 29.5781 51.3528 29.2129C48.721 28.8318 46.3802 28.475 42.7295 25.0282C39.7295 22.1958 38.5299 17.338 38.2295 12.5324C37.7295 4.53488 43.2778 -10.8493 23.2295 12.5324C17.2295 19.5299 25.7295 31.526 16.2295 33.0255C6.72949 34.525 1.22949 11.5326 0.729492 33.0255C0.427696 45.9985 5.60979 52.0098 10.1768 54.3227C11.687 55.0875 12.7345 53.3421 12.5289 51.6618C12.2008 48.9805 14.3248 46.8622 23.2295 49.0202C39.7295 53.0189 36.2295 70.513 42.7295 69.5134C47.9295 68.7136 52.5628 71.8459 54.2295 73.512Z" fill="white"/>
<mask id="mask2" mask-type="alpha" maskUnits="userSpaceOnUse" x="0" y="0" width="146" height="76">
<path d="M91.7168 73.512L86.2168 75.5114H72.7168V24.5283L74.4954 24.6469C78.2754 24.8988 81.9736 25.8645 85.3943 27.4928L87.1356 28.3217C89.4359 29.4167 92.0721 29.5781 94.5935 29.2129C97.2253 28.8318 99.566 28.475 103.217 25.0282C106.217 22.1958 107.416 17.338 107.717 12.5324C108.217 4.53488 102.668 -10.8493 122.717 12.5324C128.717 19.5299 120.217 31.526 129.717 33.0255C139.217 34.525 144.717 11.5326 145.217 33.0255C145.519 45.9985 140.337 52.0098 135.769 54.3227C134.259 55.0875 133.212 53.3421 133.417 51.6618C133.745 48.9805 131.621 46.8622 122.717 49.0202C106.217 53.0189 109.717 70.513 103.217 69.5134C98.0168 68.7136 93.3835 71.8459 91.7168 73.512Z" fill="#6C5C99"/>
<path d="M54.2295 73.512L59.7295 75.5114H73.2295V24.5283L71.4509 24.6469C67.6709 24.8988 63.9727 25.8645 60.552 27.4928L58.8107 28.3217C56.5104 29.4167 53.8742 29.5781 51.3528 29.2129C48.721 28.8318 46.3802 28.475 42.7295 25.0282C39.7295 22.1958 38.5299 17.338 38.2295 12.5324C37.7295 4.53488 43.2778 -10.8493 23.2295 12.5324C17.2295 19.5299 25.7295 31.526 16.2295 33.0255C6.72949 34.525 1.22949 11.5326 0.729492 33.0255C0.427696 45.9985 5.60979 52.0098 10.1768 54.3227C11.687 55.0875 12.7345 53.3421 12.5289 51.6618C12.2008 48.9805 14.3248 46.8622 23.2295 49.0202C39.7295 53.0189 36.2295 70.513 42.7295 69.5134C47.9295 68.7136 52.5628 71.8459 54.2295 73.512Z" fill="#6C5C99"/>
</mask>
<g mask="url(#mask2)">
<path d="M111.717 44.1097C113.717 54.6062 106.383 67.7684 105.717 71.1007L124.717 65.1027L135.217 54.6062C146.717 39.6112 141.717 27.1153 139.217 31.114C127.485 49.879 110.124 35.7481 111.717 44.1097Z" fill="#77777A"/>
<path d="M34.4736 44.1097C32.4736 54.6062 39.807 67.7684 40.4736 71.1007L21.4736 65.1027L10.9736 54.6062C-0.526367 39.6112 4.47363 27.1153 6.97363 31.114C18.7057 49.879 36.0668 35.7481 34.4736 44.1097Z" fill="#77777A"/>
</g>
<path d="M77.7168 57.2301C77.7168 59.8327 75.4782 63.5133 72.7168 63.5133C69.9554 63.5133 67.7168 59.8327 67.7168 57.2301C67.7168 54.6274 69.9554 52.5176 72.7168 52.5176C75.4782 52.5176 77.7168 54.6274 77.7168 57.2301Z" fill="url(#paint0_linear)"/>
<path d="M77.7168 57.2301C77.7168 59.8327 75.4782 63.5133 72.7168 63.5133C69.9554 63.5133 67.7168 59.8327 67.7168 57.2301C67.7168 54.6274 69.9554 52.5176 72.7168 52.5176C75.4782 52.5176 77.7168 54.6274 77.7168 57.2301Z" stroke="#77777A"/>
<path d="M75.7173 70.3109C75.7173 71.8569 74.3741 74.5098 72.7173 74.5098C71.0604 74.5098 69.7173 71.8569 69.7173 70.3109C69.7173 68.765 71.0604 67.5117 72.7173 67.5117C74.3741 67.5117 75.7173 68.765 75.7173 70.3109Z" fill="url(#paint1_linear)"/>
<path d="M75.7173 70.3109C75.7173 71.8569 74.3741 74.5098 72.7173 74.5098C71.0604 74.5098 69.7173 71.8569 69.7173 70.3109C69.7173 68.765 71.0604 67.5117 72.7173 67.5117C74.3741 67.5117 75.7173 68.765 75.7173 70.3109Z" stroke="#77777A"/>
<path d="M53.168 59.0246C55.6304 61.6905 60.949 62.8043 62.3462 61.5124C63.7434 60.2205 62.8799 57.012 60.4175 54.3461C57.9551 51.6802 54.8263 50.5663 53.4291 51.8583C52.0319 53.1502 50.7056 56.3587 53.168 59.0246Z" fill="url(#paint2_linear)"/>
<path d="M53.168 59.0246C55.6304 61.6905 60.949 62.8043 62.3462 61.5124C63.7434 60.2205 62.8799 57.012 60.4175 54.3461C57.9551 51.6802 54.8263 50.5663 53.4291 51.8583C52.0319 53.1502 50.7056 56.3587 53.168 59.0246Z" stroke="#77777A"/>
<path d="M56.7686 70.0931C58.4748 71.9386 62.1598 72.7097 63.1279 71.8154C64.0959 70.9212 63.4975 68.7002 61.7914 66.8547C60.0853 65.0092 57.9174 64.2381 56.9494 65.1324C55.9813 66.0267 55.0625 68.2476 56.7686 70.0931Z" fill="url(#paint3_linear)"/>
<path d="M56.7686 70.0931C58.4748 71.9386 62.1598 72.7097 63.1279 71.8154C64.0959 70.9212 63.4975 68.7002 61.7914 66.8547C60.0853 65.0092 57.9174 64.2381 56.9494 65.1324C55.9813 66.0267 55.0625 68.2476 56.7686 70.0931Z" stroke="#77777A"/>
<path d="M92.4284 59.0228C89.9657 61.6884 84.6464 62.8021 83.249 61.5103C81.8516 60.2186 82.7153 57.0106 85.178 54.345C87.6408 51.6794 90.77 50.5657 92.1674 51.8574C93.5647 53.1491 94.8912 56.3572 92.4284 59.0228Z" fill="url(#paint4_linear)"/>
<path d="M92.4284 59.0228C89.9657 61.6884 84.6464 62.8021 83.249 61.5103C81.8516 60.2186 82.7153 57.0106 85.178 54.345C87.6408 51.6794 90.77 50.5657 92.1674 51.8574C93.5647 53.1491 94.8912 56.3572 92.4284 59.0228Z" stroke="#77777A"/>
<path d="M88.83 70.0931C87.1239 71.9386 83.4388 72.7097 82.4708 71.8154C81.5027 70.9212 82.1011 68.7002 83.8072 66.8547C85.5134 65.0092 87.6812 64.2381 88.6493 65.1324C89.6173 66.0267 90.5362 68.2476 88.83 70.0931Z" fill="url(#paint5_linear)"/>
<path d="M88.83 70.0931C87.1239 71.9386 83.4388 72.7097 82.4708 71.8154C81.5027 70.9212 82.1011 68.7002 83.8072 66.8547C85.5134 65.0092 87.6812 64.2381 88.6493 65.1324C89.6173 66.0267 90.5362 68.2476 88.83 70.0931Z" stroke="#77777A"/>
<defs>
<linearGradient id="paint0_linear" x1="67.5085" y1="52.5176" x2="80.0207" y2="62.9691" gradientUnits="userSpaceOnUse">
<stop stop-color="#EF1ACD"/>
<stop offset="1" stop-color="#EFB31A"/>
</linearGradient>
<linearGradient id="paint1_linear" x1="69.5923" y1="67.5117" x2="77.4592" y2="73.7068" gradientUnits="userSpaceOnUse">
<stop stop-color="#EF1ACD"/>
<stop offset="1" stop-color="#EFB31A"/>
</linearGradient>
<linearGradient id="paint2_linear" x1="56.089" y1="49.3988" x2="51.6654" y2="64.2823" gradientUnits="userSpaceOnUse">
<stop stop-color="#EF1ACD"/>
<stop offset="1" stop-color="#EFB31A"/>
</linearGradient>
<linearGradient id="paint3_linear" x1="58.7922" y1="63.43" x2="55.7322" y2="73.734" gradientUnits="userSpaceOnUse">
<stop stop-color="#EF1ACD"/>
<stop offset="1" stop-color="#EFB31A"/>
</linearGradient>
<linearGradient id="paint4_linear" x1="89.5072" y1="49.3984" x2="93.9294" y2="64.2804" gradientUnits="userSpaceOnUse">
<stop stop-color="#EF1ACD"/>
<stop offset="1" stop-color="#EFB31A"/>
</linearGradient>
<linearGradient id="paint5_linear" x1="86.8064" y1="63.43" x2="89.8665" y2="73.734" gradientUnits="userSpaceOnUse">
<stop stop-color="#EF1ACD"/>
<stop offset="1" stop-color="#EFB31A"/>
</linearGradient>
</defs>
</svg>
