<svg width="126" height="103" viewBox="0 0 126 103" fill="none" xmlns="http://www.w3.org/2000/svg">
<path fill-rule="evenodd" clip-rule="evenodd" d="M73.2 5.5C73.2 2.73858 70.9614 0.5 68.2 0.5H57.8C55.0386 0.5 52.8 2.73858 52.8 5.50001V11.9846C49.056 12.9482 45.52 14.4299 42.2729 16.3487L37.6853 11.7609C35.7328 9.80822 32.567 9.80822 30.6145 11.7609L23.2607 19.115C21.3082 21.0676 21.3082 24.2336 23.2607 26.1862L27.8483 30.7741C25.9299 34.0209 24.4484 37.5567 23.485 41.3004H17C14.2386 41.3004 12 43.539 12 46.3004V56.7004C12 59.4618 14.2386 61.7004 17 61.7004H23.4857C24.4492 65.4437 25.9307 68.979 27.8491 72.2255L23.2606 76.814C21.308 78.7666 21.308 81.9325 23.2606 83.8851L30.6145 91.239C32.5671 93.1916 35.733 93.1916 37.6856 91.239L42.2742 86.6503C45.5209 88.5688 49.0565 90.0502 52.8 91.0137V97.4998C52.8 100.261 55.0386 102.5 57.8 102.5H68.2C70.9614 102.5 73.2 100.261 73.2 97.4998V91.0137C76.9425 90.0504 80.4772 88.5695 83.7232 86.6518L88.3128 91.2417C90.2654 93.1943 93.4312 93.1943 95.3837 91.2417L102.737 83.8876C104.69 81.9349 104.69 78.769 102.737 76.8163L98.1493 72.228C100.068 68.9808 101.55 65.4446 102.514 61.7004H109C111.761 61.7004 114 59.4618 114 56.7004V46.3004C114 43.539 111.761 41.3004 109 41.3004H102.515C101.551 37.5565 100.07 34.0205 98.1512 30.7734L102.739 26.1852C104.692 24.2326 104.692 21.0668 102.739 19.1142L95.3855 11.7603C93.4328 9.80766 90.267 9.80766 88.3144 11.7603L83.7263 16.3483C80.4795 14.4297 76.9437 12.9482 73.2 11.9846V5.5ZM63 85.4992C81.7777 85.4992 97 70.2769 97 51.4992C97 32.7216 81.7777 17.4993 63 17.4993C44.2223 17.4993 29 32.7216 29 51.4992C29 70.2769 44.2223 85.4992 63 85.4992Z" fill="#C4C4C4"/>
<ellipse cx="63" cy="51.4995" rx="29" ry="29" fill="#C4C4C4"/>
<rect y="30.5" width="126" height="42.9999" rx="5" fill="white"/>
<rect x="8" y="39.4995" width="110" height="26" fill="#2B2A30" stroke="#2B2A30" stroke-width="4"/>
<rect x="95" y="42.499" width="20" height="20" fill="#C4C4C4"/>
<rect x="32" y="42.499" width="20" height="20" fill="url(#paint0_linear)"/>
<rect x="53" y="42.499" width="20" height="20" fill="url(#paint1_linear)"/>
<rect x="74" y="42.499" width="20" height="20" fill="#C4C4C4"/>
<rect x="11" y="42.499" width="20" height="20" fill="url(#paint2_linear)"/>
<path d="M113.89 66.7656L82.5235 53.9398C81.213 53.4039 79.9049 54.712 80.4408 56.0225L93.2712 87.4005C93.7562 88.5868 95.3706 88.7473 96.0798 87.6798L100.756 80.64C101.315 79.7984 102.506 79.6809 103.218 80.397L118.118 95.3645C118.741 95.9906 119.754 95.9918 120.379 95.367L121.791 93.955C122.415 93.3312 122.415 92.32 121.791 91.6963L106.816 76.7219C106.102 76.007 106.222 74.8161 107.066 74.2594L114.165 69.5771C115.237 68.8702 115.079 67.2516 113.89 66.7656Z" fill="#EAEAEA"/>
<rect width="2.00004" height="10.89" rx="1.00002" transform="matrix(0.774698 -0.632332 0.632367 0.774669 68.6865 42.5557)" fill="#EAEAEA"/>
<rect width="1.99995" height="9.99971" rx="0.999973" transform="matrix(0.175717 -0.984414 0.984469 0.175711 61.0991 57.1855)" fill="#EAEAEA"/>
<rect width="1.99995" height="9.99972" rx="0.999973" transform="matrix(-0.999714 -0.0249973 -0.0249993 0.999661 85.8286 36.1953)" fill="#EAEAEA"/>
<defs>
<linearGradient id="paint0_linear" x1="31.5833" y1="42.499" x2="54.6278" y2="63.6649" gradientUnits="userSpaceOnUse">
<stop stop-color="#EF1ACD"/>
<stop offset="1" stop-color="#EFB31A"/>
</linearGradient>
<linearGradient id="paint1_linear" x1="52.5833" y1="42.499" x2="75.6278" y2="63.6649" gradientUnits="userSpaceOnUse">
<stop stop-color="#EF1ACD"/>
<stop offset="1" stop-color="#EFB31A"/>
</linearGradient>
<linearGradient id="paint2_linear" x1="10.5833" y1="42.499" x2="33.6278" y2="63.6649" gradientUnits="userSpaceOnUse">
<stop stop-color="#EF1ACD"/>
<stop offset="1" stop-color="#EFB31A"/>
</linearGradient>
</defs>
</svg>
