<svg width="270" height="58" viewBox="0 0 270 58" fill="none" xmlns="http://www.w3.org/2000/svg">
<g filter="url(#filter0_d)">
<path d="M9 21.0286L17.6341 9.50024L22.8668 16.9814L23.9134 39.1795L14.3636 48.3776L9 39.3022V21.0286Z" fill="url(#paint0_linear)"/>
</g>
<path d="M13.0547 21.0283L17.6334 9.5L22.8661 16.9811L17.6334 26.5472L15.1478 26.6698L13.0547 21.0283Z" fill="url(#paint1_linear)"/>
<path d="M22.8675 16.9819L17.6348 26.548L18.4197 41.3876L23.9141 39.1801L22.8675 16.9819Z" fill="url(#paint2_linear)"/>
<path d="M11.0931 21.0283H9V39.3019L13.0554 29.1227L11.0931 21.0283Z" fill="url(#paint3_linear)"/>
<path d="M13.056 21.0283H11.0938L13.056 29.1227L15.1491 26.6698L13.056 21.0283Z" fill="#FA619F"/>
<path d="M14.3638 44.9434V48.5L23.9136 39.1792L18.4192 41.3867L14.3638 44.9434Z" fill="#E6723D"/>
<path d="M48.3517 23.3416V38.9443H44.5855V23.3416H39.5011V20.1134H53.436V23.3416H48.3517ZM70.6894 38.9443H66.5466L62.5114 31.8424H60.171V38.9443H56.4048V20.1134H66.6004L69.721 21.9158V30.04L66.6004 31.8424L70.6894 38.9443ZM60.171 23.3416V28.6142H65.9548V23.3416H60.171ZM88.9565 37.2765L85.8359 39.0788H77.4158L74.2953 37.2765V21.7813L77.4158 19.9789H85.8359L88.9565 21.7813V37.2765ZM78.0614 23.2071V35.8507H85.1903V23.2071H78.0614ZM93.5255 38.9443V20.1134H103.452L106.573 21.9158V30.309L103.452 32.1114H97.2917V38.9443H93.5255ZM97.2917 23.3416V28.8832H102.806V23.3416H97.2917ZM114.105 30.8739V38.9443H110.339V20.1134H114.105V27.6458H121.503V20.1134H125.269V38.9443H121.503V30.8739H114.105ZM134.001 38.9443V30.9008L127.949 20.1134H132.038L135.858 27.1616H135.911L139.758 20.1134H143.847L137.768 30.9277V38.9443H134.001Z" fill="#EAEAEA"/>
<path d="M48.3517 23.3416V22.9562H47.9663V23.3416H48.3517ZM48.3517 38.9443V39.3297H48.7371V38.9443H48.3517ZM44.5855 38.9443H44.2001V39.3297H44.5855V38.9443ZM44.5855 23.3416H44.9709V22.9562H44.5855V23.3416ZM39.5011 23.3416H39.1157V23.727H39.5011V23.3416ZM39.5011 20.1134V19.728H39.1157V20.1134H39.5011ZM53.436 20.1134H53.8214V19.728H53.436V20.1134ZM53.436 23.3416V23.727H53.8214V23.3416H53.436ZM47.9663 23.3416V38.9443H48.7371V23.3416H47.9663ZM48.3517 38.5589H44.5855V39.3297H48.3517V38.5589ZM44.9709 38.9443V23.3416H44.2001V38.9443H44.9709ZM44.5855 22.9562H39.5011V23.727H44.5855V22.9562ZM39.8866 23.3416V20.1134H39.1157V23.3416H39.8866ZM39.5011 20.4988H53.436V19.728H39.5011V20.4988ZM53.0506 20.1134V23.3416H53.8214V20.1134H53.0506ZM53.436 22.9562H48.3517V23.727H53.436V22.9562ZM70.6894 38.9443V39.3297H71.3561L71.0234 38.752L70.6894 38.9443ZM66.5466 38.9443L66.2115 39.1347L66.3223 39.3297H66.5466V38.9443ZM62.5114 31.8424L62.8465 31.652L62.7357 31.457H62.5114V31.8424ZM60.171 31.8424V31.457H59.7856V31.8424H60.171ZM60.171 38.9443V39.3297H60.5564V38.9443H60.171ZM56.4048 38.9443H56.0194V39.3297H56.4048V38.9443ZM56.4048 20.1134V19.728H56.0194V20.1134H56.4048ZM66.6004 20.1134L66.7932 19.7797L66.7037 19.728H66.6004V20.1134ZM69.721 21.9158H70.1064V21.6933L69.9138 21.5821L69.721 21.9158ZM69.721 30.04L69.9138 30.3737L70.1064 30.2625V30.04H69.721ZM66.6004 31.8424L66.4077 31.5086L66.0744 31.7011L66.2664 32.0347L66.6004 31.8424ZM60.171 23.3416V22.9562H59.7856V23.3416H60.171ZM60.171 28.6142H59.7856V28.9996H60.171V28.6142ZM65.9548 28.6142V28.9996H66.3402V28.6142H65.9548ZM65.9548 23.3416H66.3402V22.9562H65.9548V23.3416ZM70.6894 38.5589H66.5466V39.3297H70.6894V38.5589ZM66.8817 38.7539L62.8465 31.652L62.1763 32.0328L66.2115 39.1347L66.8817 38.7539ZM62.5114 31.457H60.171V32.2278H62.5114V31.457ZM59.7856 31.8424V38.9443H60.5564V31.8424H59.7856ZM60.171 38.5589H56.4048V39.3297H60.171V38.5589ZM56.7902 38.9443V20.1134H56.0194V38.9443H56.7902ZM56.4048 20.4988H66.6004V19.728H56.4048V20.4988ZM66.4077 20.4472L69.5282 22.2495L69.9138 21.5821L66.7932 19.7797L66.4077 20.4472ZM69.3356 21.9158V30.04H70.1064V21.9158H69.3356ZM69.5282 29.7063L66.4077 31.5086L66.7932 32.1761L69.9138 30.3737L69.5282 29.7063ZM66.2664 32.0347L70.3554 39.1366L71.0234 38.752L66.9344 31.6501L66.2664 32.0347ZM59.7856 23.3416V28.6142H60.5564V23.3416H59.7856ZM60.171 28.9996H65.9548V28.2288H60.171V28.9996ZM66.3402 28.6142V23.3416H65.5694V28.6142H66.3402ZM65.9548 22.9562H60.171V23.727H65.9548V22.9562ZM88.9565 37.2765L89.1492 37.6102L89.3419 37.4989V37.2765H88.9565ZM85.8359 39.0788V39.4643H85.9392L86.0287 39.4126L85.8359 39.0788ZM77.4158 39.0788L77.2231 39.4126L77.3125 39.4643H77.4158V39.0788ZM74.2953 37.2765H73.9099V37.4989L74.1025 37.6102L74.2953 37.2765ZM74.2953 21.7813L74.1025 21.4476L73.9099 21.5588V21.7813H74.2953ZM77.4158 19.9789V19.5935H77.3125L77.2231 19.6452L77.4158 19.9789ZM85.8359 19.9789L86.0287 19.6452L85.9392 19.5935H85.8359V19.9789ZM88.9565 21.7813H89.3419V21.5588L89.1492 21.4476L88.9565 21.7813ZM78.0614 23.2071V22.8217H77.676V23.2071H78.0614ZM78.0614 35.8507H77.676V36.2361H78.0614V35.8507ZM85.1903 35.8507V36.2361H85.5757V35.8507H85.1903ZM85.1903 23.2071H85.5757V22.8217H85.1903V23.2071ZM88.7637 36.9427L85.6432 38.7451L86.0287 39.4126L89.1492 37.6102L88.7637 36.9427ZM85.8359 38.6934H77.4158V39.4643H85.8359V38.6934ZM77.6086 38.7451L74.488 36.9427L74.1025 37.6102L77.2231 39.4126L77.6086 38.7451ZM74.6807 37.2765V21.7813H73.9099V37.2765H74.6807ZM74.488 22.115L77.6086 20.3126L77.2231 19.6452L74.1025 21.4476L74.488 22.115ZM77.4158 20.3643H85.8359V19.5935H77.4158V20.3643ZM85.6432 20.3126L88.7637 22.115L89.1492 21.4476L86.0287 19.6452L85.6432 20.3126ZM88.5711 21.7813V37.2765H89.3419V21.7813H88.5711ZM77.676 23.2071V35.8507H78.4469V23.2071H77.676ZM78.0614 36.2361H85.1903V35.4653H78.0614V36.2361ZM85.5757 35.8507V23.2071H84.8049V35.8507H85.5757ZM85.1903 22.8217H78.0614V23.5925H85.1903V22.8217ZM93.5255 38.9443H93.1401V39.3297H93.5255V38.9443ZM93.5255 20.1134V19.728H93.1401V20.1134H93.5255ZM103.452 20.1134L103.645 19.7797L103.555 19.728H103.452V20.1134ZM106.573 21.9158H106.958V21.6933L106.765 21.5821L106.573 21.9158ZM106.573 30.309L106.765 30.6428L106.958 30.5315V30.309H106.573ZM103.452 32.1114V32.4968H103.555L103.645 32.4451L103.452 32.1114ZM97.2917 32.1114V31.726H96.9063V32.1114H97.2917ZM97.2917 38.9443V39.3297H97.6771V38.9443H97.2917ZM97.2917 23.3416V22.9562H96.9063V23.3416H97.2917ZM97.2917 28.8832H96.9063V29.2687H97.2917V28.8832ZM102.806 28.8832V29.2687H103.192V28.8832H102.806ZM102.806 23.3416H103.192V22.9562H102.806V23.3416ZM93.9109 38.9443V20.1134H93.1401V38.9443H93.9109ZM93.5255 20.4988H103.452V19.728H93.5255V20.4988ZM103.259 20.4472L106.38 22.2495L106.765 21.5821L103.645 19.7797L103.259 20.4472ZM106.187 21.9158V30.309H106.958V21.9158H106.187ZM106.38 29.9753L103.259 31.7777L103.645 32.4451L106.765 30.6428L106.38 29.9753ZM103.452 31.726H97.2917V32.4968H103.452V31.726ZM96.9063 32.1114V38.9443H97.6771V32.1114H96.9063ZM97.2917 38.5589H93.5255V39.3297H97.2917V38.5589ZM96.9063 23.3416V28.8832H97.6771V23.3416H96.9063ZM97.2917 29.2687H102.806V28.4978H97.2917V29.2687ZM103.192 28.8832V23.3416H102.421V28.8832H103.192ZM102.806 22.9562H97.2917V23.727H102.806V22.9562ZM114.105 30.8739V30.4885H113.72V30.8739H114.105ZM114.105 38.9443V39.3297H114.49V38.9443H114.105ZM110.339 38.9443H109.953V39.3297H110.339V38.9443ZM110.339 20.1134V19.728H109.953V20.1134H110.339ZM114.105 20.1134H114.49V19.728H114.105V20.1134ZM114.105 27.6458H113.72V28.0312H114.105V27.6458ZM121.503 27.6458V28.0312H121.888V27.6458H121.503ZM121.503 20.1134V19.728H121.117V20.1134H121.503ZM125.269 20.1134H125.654V19.728H125.269V20.1134ZM125.269 38.9443V39.3297H125.654V38.9443H125.269ZM121.503 38.9443H121.117V39.3297H121.503V38.9443ZM121.503 30.8739H121.888V30.4885H121.503V30.8739ZM113.72 30.8739V38.9443H114.49V30.8739H113.72ZM114.105 38.5589H110.339V39.3297H114.105V38.5589ZM110.724 38.9443V20.1134H109.953V38.9443H110.724ZM110.339 20.4988H114.105V19.728H110.339V20.4988ZM113.72 20.1134V27.6458H114.49V20.1134H113.72ZM114.105 28.0312H121.503V27.2604H114.105V28.0312ZM121.888 27.6458V20.1134H121.117V27.6458H121.888ZM121.503 20.4988H125.269V19.728H121.503V20.4988ZM124.884 20.1134V38.9443H125.654V20.1134H124.884ZM125.269 38.5589H121.503V39.3297H125.269V38.5589ZM121.888 38.9443V30.8739H121.117V38.9443H121.888ZM121.503 30.4885H114.105V31.2594H121.503V30.4885ZM134.001 38.9443H133.616V39.3297H134.001V38.9443ZM134.001 30.9008H134.387V30.8001L134.338 30.7122L134.001 30.9008ZM127.949 20.1134V19.728H127.29L127.613 20.302L127.949 20.1134ZM132.038 20.1134L132.377 19.9298L132.267 19.728H132.038V20.1134ZM135.858 27.1616L135.519 27.3452L135.628 27.547H135.858V27.1616ZM135.911 27.1616V27.547H136.14L136.25 27.3462L135.911 27.1616ZM139.758 20.1134V19.728H139.53L139.42 19.9288L139.758 20.1134ZM143.847 20.1134L144.183 20.3023L144.506 19.728H143.847V20.1134ZM137.768 30.9277L137.432 30.7389L137.382 30.8268V30.9277H137.768ZM137.768 38.9443V39.3297H138.153V38.9443H137.768ZM134.387 38.9443V30.9008H133.616V38.9443H134.387ZM134.338 30.7122L128.285 19.9248L127.613 20.302L133.665 31.0894L134.338 30.7122ZM127.949 20.4988H132.038V19.728H127.949V20.4988ZM131.699 20.2971L135.519 27.3452L136.197 26.9779L132.377 19.9298L131.699 20.2971ZM135.858 27.547H135.911V26.7762H135.858V27.547ZM136.25 27.3462L140.097 20.2981L139.42 19.9288L135.573 26.9769L136.25 27.3462ZM139.758 20.4988H143.847V19.728H139.758V20.4988ZM143.511 19.9245L137.432 30.7389L138.104 31.1166L144.183 20.3023L143.511 19.9245ZM137.382 30.9277V38.9443H138.153V30.9277H137.382ZM137.768 38.5589H134.001V39.3297H137.768V38.5589Z" fill="#EAEAEA"/>
<path d="M151.515 39.2756V20.1133H153.958V28.1474H163.757V20.1133H166.2V39.2756H163.757V30.2535H153.958V39.2756H151.515Z" fill="#EAEAEA"/>
<path d="M173.28 39.2756L170.461 36.5456V20.1133H172.904V35.7396L174.38 37.1696H181.494L182.971 35.7396V20.1133H185.414V36.5456L182.595 39.2756H173.28Z" fill="#EAEAEA"/>
<path d="M189.713 39.2756V20.1133H193.041L201.874 35.5315V20.1133H204.317V39.2756H201.417L192.746 24.1434H192.156V39.2756H189.713Z" fill="#EAEAEA"/>
<path d="M212.874 39.2756V22.2973H206.995V20.1133H221.197V22.2973H215.317V39.2756H212.874Z" fill="#EAEAEA"/>
<path d="M223.873 39.2756V20.1133H236.92V22.2973H226.316V28.1214H235.792V30.2795H226.316V37.0916H236.92V39.2756H223.873Z" fill="#EAEAEA"/>
<path d="M240.651 39.2756V20.1133H251.47L254.262 22.8433V28.9534L251.47 31.6835H251.39L254.96 39.2756H252.249L248.732 31.6835H243.094V39.2756H240.651ZM243.094 29.5774H250.369L251.819 28.1474V23.6493L250.369 22.2193H243.094V29.5774Z" fill="#EAEAEA"/>
<defs>
<filter id="filter0_d" x="0.0328951" y="0.533139" width="32.8476" height="56.8116" filterUnits="userSpaceOnUse" color-interpolation-filters="sRGB">
<feFlood flood-opacity="0" result="BackgroundImageFix"/>
<feColorMatrix in="SourceAlpha" type="matrix" values="0 0 0 0 0 0 0 0 0 0 0 0 0 0 0 0 0 0 127 0"/>
<feOffset/>
<feGaussianBlur stdDeviation="4.48355"/>
<feColorMatrix type="matrix" values="0 0 0 0 1 0 0 0 0 0.258333 0 0 0 0 0.731396 0 0 0 1 0"/>
<feBlend mode="normal" in2="BackgroundImageFix" result="effect1_dropShadow"/>
<feBlend mode="normal" in="SourceGraphic" in2="effect1_dropShadow" result="shape"/>
</filter>
<linearGradient id="paint0_linear" x1="11.7964" y1="14.1947" x2="34.3199" y2="32.1903" gradientUnits="userSpaceOnUse">
<stop stop-color="#EF1ACD"/>
<stop offset="1" stop-color="#EFB31A"/>
</linearGradient>
<linearGradient id="paint1_linear" x1="17.9485" y1="10.5833" x2="17.9485" y2="29.3612" gradientUnits="userSpaceOnUse">
<stop stop-color="#FF42BB"/>
<stop offset="1" stop-color="#FF8AA2"/>
</linearGradient>
<linearGradient id="paint2_linear" x1="20.7744" y1="16.9819" x2="20.7744" y2="41.3876" gradientUnits="userSpaceOnUse">
<stop stop-color="#C42094"/>
<stop offset="1" stop-color="#FC7664"/>
</linearGradient>
<linearGradient id="paint3_linear" x1="11.0277" y1="21.0283" x2="11.7489" y2="34.7806" gradientUnits="userSpaceOnUse">
<stop stop-color="#FF59CD"/>
<stop offset="1" stop-color="#EE477A"/>
</linearGradient>
</defs>
</svg>
